<?xml version="1.0" standalone="no"?>
<!DOCTYPE svg PUBLIC "-//W3C//DTD SVG 20010904//EN"
 "http://www.w3.org/TR/2001/REC-SVG-20010904/DTD/svg10.dtd">
<svg version="1.0" xmlns="http://www.w3.org/2000/svg"
 width="500.000000pt" height="500.000000pt" viewBox="0 0 500.000000 500.000000"
 preserveAspectRatio="xMidYMid meet">
<metadata>
Created by potrace 1.14, written by Peter Selinger 2001-2017
</metadata>
<g transform="translate(0.000000,500.000000) scale(0.100000,-0.100000)"
fill="#000000" stroke="none">
<path d="M2308 4905 c-1 -1 -32 -6 -68 -9 -36 -4 -78 -9 -95 -11 -16 -3 -46
-7 -65 -10 -43 -6 -76 -12 -100 -20 -10 -3 -27 -7 -37 -9 -84 -17 -267 -76
-363 -118 -25 -10 -54 -23 -65 -28 -27 -11 -182 -89 -222 -111 -72 -41 -281
-186 -314 -218 -8 -9 -30 -27 -48 -41 -93 -72 -262 -254 -367 -395 -155 -207
-290 -471 -365 -710 -28 -90 -77 -302 -84 -365 -4 -30 -10 -82 -15 -115 -9
-65 -6 -485 4 -525 3 -14 8 -49 11 -79 3 -29 7 -56 9 -60 2 -3 7 -24 10 -46
12 -74 66 -267 103 -369 68 -185 238 -497 337 -617 11 -14 32 -40 46 -59 59
-79 212 -236 310 -319 30 -25 60 -51 66 -57 17 -15 147 -107 224 -157 242
-159 616 -297 930 -343 188 -27 559 -26 715 2 29 5 159 31 201 39 100 21 453
148 489 175 6 5 44 26 85 47 468 241 882 697 1085 1193 63 154 134 394 150
505 3 23 7 50 9 60 22 115 29 509 13 630 -5 33 -10 76 -12 95 -3 32 -7 57 -19
115 -22 104 -83 317 -106 370 -5 11 -21 49 -35 85 -141 351 -414 712 -720 953
-33 26 -66 52 -72 57 -59 49 -235 154 -358 215 -127 62 -308 137 -365 151 -8
2 -58 15 -110 29 -96 25 -177 41 -260 51 -25 3 -70 9 -100 14 -51 7 -424 12
-432 5z"/>
</g>
</svg>
